# xmcd CD database file
#
# Track frame offsets:
#	150
#	14866
#	34821
#	55096
#	68754
#	89754
#	100848
#	127532
#	141475
#	154533
#	168191
#	178895
#	191327
#	203912
#	217716
#	234250
#	253418
#	261266
#	278462
#	298507
#	315439
#
# Disc length: 4745 seconds
#
# Revision: 0
# Processed by: cddbd v1.5.2PL0 Copyright (c) Steve Scherf et al.
# Submitted via: CDex 1.70beta2
#
DISCID=29128715
DTITLE=Looking Back - John Mayal
DYEAR=1970
DGENRE=Blues
TTITLE0=Third Degree
TTITLE1=Stormy Monday
TTITLE2=Jenny
TTITLE3=Picture On the Wall
TTITLE4=Chicago Line
TTITLE5=Steppin´ Out
TTITLE6=Have You Heard
TTITLE7=Ramblin´ On My Mind
TTITLE8=The Super-Natural
TTITLE9=Double Crossing time
TTITLE10=Parchman Farm
TTITLE11=Dust My Blues
TTITLE12=You Don´t Love Me
TTITLE13=Don´t Kick Me
TTITLE14=Brown Sugar
TTITLE15=The Death of J. B. Lenoir
TTITLE16=Stand Back Baby
TTITLE17=Checkin´ Up On My Baby
TTITLE18=I Can Quit You Baby
TTITLE19=Sandy
TTITLE20=Blood On the Night
EXTD=YEAR: 1970
EXTT0=
EXTT1=
EXTT2=
EXTT3=
EXTT4=
EXTT5=
EXTT6=
EXTT7=
EXTT8=
EXTT9=
EXTT10=
EXTT11=
EXTT12=
EXTT13=
EXTT14=
EXTT15=
EXTT16=
EXTT17=
EXTT18=
EXTT19=
EXTT20=
PLAYORDER=
